<svg width="430" height="430" viewBox="0 0 430 430" xmlns="http://www.w3.org/2000/svg">
<path d="M425.001 173.056H407.75V172.167H215V257.834H336.036C318.378 307.702 270.929 343.5 215 343.5C144.036 343.5 86.4997 285.964 86.4997 215C86.4997 144.036 144.036 86.5002 215 86.5002C247.756 86.5002 277.558 98.8576 300.249 119.043L360.826 58.4657C322.576 22.8177 271.411 0.833496 215 0.833496C96.7261 0.833496 0.833008 96.7266 0.833008 215C0.833008 333.274 96.7261 429.167 215 429.167C333.273 429.167 429.166 333.274 429.166 215C429.166 200.64 427.689 186.623 425.001 173.056Z" fill="#FFC107" style="fill:#FFC107;fill:color(display-p3 1.0000 0.7569 0.0275);fill-opacity:1;"/>
<path d="M25.5264 115.316L95.8908 166.92C114.93 119.782 161.04 86.5002 215 86.5002C247.756 86.5002 277.558 98.8576 300.249 119.043L360.826 58.4657C322.576 22.8177 271.411 0.833496 215 0.833496C132.738 0.833496 61.3993 47.2755 25.5264 115.316Z" fill="#FF3D00" style="fill:#FF3D00;fill:color(display-p3 1.0000 0.2392 0.0000);fill-opacity:1;"/>
<path d="M215 429.167C270.319 429.167 320.584 407.996 358.588 373.569L292.303 317.479C270.079 334.381 242.921 343.522 215 343.5C159.295 343.5 111.996 307.981 94.1776 258.412L24.3379 312.221C59.7825 381.579 131.764 429.167 215 429.167Z" fill="#4CAF50" style="fill:#4CAF50;fill:color(display-p3 0.2980 0.6863 0.3137);fill-opacity:1;"/>
<path d="M425.001 173.055H407.75V172.167H215V257.833H336.036C327.59 281.567 312.375 302.307 292.271 317.489L292.303 317.468L358.588 373.558C353.898 377.82 429.167 322.083 429.167 215C429.167 200.64 427.689 186.623 425.001 173.055Z" fill="#1976D2" style="fill:#1976D2;fill:color(display-p3 0.0980 0.4627 0.8235);fill-opacity:1;"/>
</svg>
