<svg width="86" height="102" viewBox="0 0 86 102" fill="none" xmlns="http://www.w3.org/2000/svg">
<path d="M66.3 0C64.2313 0 62.2474 0.821783 60.7846 2.28457C59.3218 3.74735 58.5 5.73131 58.5 7.8H0V15.6L7.8 23.4L15.6 15.6L23.4 23.4L31.2 15.6L39 23.4H58.5C58.5 25.4687 59.3218 27.4526 60.7846 28.9154C62.2474 30.3782 64.2313 31.2 66.3 31.2H81.9C82.9343 31.2 83.9263 30.7891 84.6577 30.0577C85.3891 29.3263 85.8 28.3343 85.8 27.3V3.9C85.8 2.86566 85.3891 1.87368 84.6577 1.14228C83.9263 0.410892 82.9343 0 81.9 0H66.3ZM70.2 11.7C70.2 10.6657 70.6109 9.67368 71.3423 8.94228C72.0737 8.21089 73.0657 7.8 74.1 7.8C75.1343 7.8 76.1263 8.21089 76.8577 8.94228C77.5891 9.67368 78 10.6657 78 11.7V19.5C78 20.5343 77.5891 21.5263 76.8577 22.2577C76.1263 22.9891 75.1343 23.4 74.1 23.4C73.0657 23.4 72.0737 22.9891 71.3423 22.2577C70.6109 21.5263 70.2 20.5343 70.2 19.5V11.7ZM1.1388 65.1612C0.409741 65.8921 0.000219328 66.8822 0 67.9146V97.5C0 98.5343 0.410892 99.5263 1.14228 100.258C1.87368 100.989 2.86566 101.4 3.9 101.4H15.6C16.6343 101.4 17.6263 100.989 18.3577 100.258C19.0891 99.5263 19.5 98.5343 19.5 97.5V93.6H66.3V97.5C66.3 98.5343 66.7109 99.5263 67.4423 100.258C68.1737 100.989 69.1657 101.4 70.2 101.4H81.9C82.9343 101.4 83.9263 100.989 84.6577 100.258C85.3891 99.5263 85.8 98.5343 85.8 97.5V67.9146C85.7998 66.8822 85.3903 65.8921 84.6612 65.1612L78 58.5L67.4388 40.8954C67.0917 40.3161 66.6001 39.8369 66.0122 39.5047C65.4242 39.1724 64.7601 38.9985 64.0848 39H21.7152C21.0412 38.9999 20.3787 39.1744 19.7922 39.5066C19.2058 39.8388 18.7154 40.3173 18.369 40.8954L7.8 58.5L1.1388 65.1612ZM71.2452 62.4H14.5548L23.9148 46.8H61.8852L71.2452 62.4ZM27.3 76.6584V79.56C27.3 80.1806 27.0535 80.7758 26.6146 81.2146C26.1758 81.6535 25.5806 81.9 24.96 81.9H10.14C9.51939 81.9 8.92421 81.6535 8.48537 81.2146C8.04654 80.7758 7.8 80.1806 7.8 79.56V73.0548C7.80016 72.7086 7.87715 72.3667 8.02542 72.0538C8.17369 71.741 8.38954 71.4649 8.6574 71.2455C8.92527 71.0262 9.23847 70.869 9.57443 70.7853C9.91039 70.7016 10.2607 70.6935 10.6002 70.7616L24.7962 73.6008C25.5024 73.7431 26.1375 74.1253 26.5939 74.6826C27.0503 75.24 27.2998 75.938 27.3 76.6584ZM78 74.0064V79.56C78 80.1806 77.7535 80.7758 77.3146 81.2146C76.8758 81.6535 76.2806 81.9 75.66 81.9H60.84C60.2194 81.9 59.6242 81.6535 59.1854 81.2146C58.7465 80.7758 58.5 80.1806 58.5 79.56V76.0188C58.5003 75.4783 58.6876 74.9545 59.0303 74.5365C59.373 74.1184 59.8498 73.8319 60.3798 73.7256L74.2638 70.9488C74.7166 70.8576 75.184 70.868 75.6323 70.9794C76.0806 71.0908 76.4985 71.3003 76.856 71.5928C77.2134 71.8854 77.5015 72.2536 77.6993 72.671C77.8972 73.0884 77.9999 73.5445 78 74.0064Z" fill="black"/>
</svg>
